<svg width="175" height="63" viewBox="0 0 175 63" fill="none" xmlns="http://www.w3.org/2000/svg">
<g clip-path="url(#clip0)">
<path d="M77.6873 59.6622V21.0869H86.4156V18.4059H73.6767V21.0869H74.865V59.8693C74.2352 59.8693 73.5935 59.9166 72.9458 59.9285C72.4943 59.9285 72.0487 59.9285 71.609 59.8989V21.0869H72.7438V18.4059H60.0108V21.0869H68.7391V59.7154C50.9854 58.0997 41.4609 48.157 41.3599 48.0505L39.108 50.1337C39.5834 50.6486 50.8488 62.4793 72.221 62.9764H72.9102H73.6054C94.9954 62.4793 106.243 50.6486 106.718 50.1337L104.46 48.0505C104.365 48.163 95.1083 57.8926 77.6873 59.6622Z" fill="#4C86A0"/>
<path d="M6.85669 26.7328C6.65298 27.0095 6.48342 27.3095 6.35164 27.6265C6.22742 27.9248 6.12418 28.2313 6.04268 28.5438C5.97607 28.8047 5.92645 29.0696 5.89414 29.3369C5.86245 29.5736 5.83868 29.7275 5.82284 29.7985L5.54358 32.1658C5.50925 32.405 5.46165 32.6421 5.40098 32.876C5.35281 33.0914 5.25745 33.2935 5.12172 33.4678C4.98934 33.6386 4.81555 33.773 4.61668 33.8584C4.36065 33.9629 4.08507 34.0113 3.80861 34.0005H2.852V25.4782H0V45.3281H2.852V36.4921H4.45031L6.96958 45.3281H9.881L6.91016 35.2374C7.08147 35.1032 7.23517 34.9481 7.36767 34.7758C7.53557 34.5691 7.67357 34.34 7.77765 34.0952C7.8531 33.9286 7.90893 33.7538 7.94401 33.5744C7.97966 33.3791 8.01531 33.1897 8.0569 32.9825C8.0985 32.7754 8.12226 32.5564 8.14009 32.3138L8.38964 29.9997C8.43123 29.7038 8.47282 29.4079 8.53224 29.1889C8.58056 28.9678 8.68721 28.7635 8.8412 28.5971C8.96762 28.4427 9.13112 28.3226 9.31654 28.2479C9.52245 28.1755 9.73996 28.1414 9.95824 28.1473V25.4782C9.35166 25.4708 8.74843 25.5689 8.17574 25.7682C7.65614 25.9642 7.20008 26.2978 6.85669 26.7328Z" fill="#4C86A0"/>
<path d="M16.1494 25.4783L11.6991 45.3281H14.557L15.3948 41.0611H19.2866L20.1244 45.3281H22.9764L18.5261 25.4783H16.1494ZM15.8999 38.386L17.2961 31.1953H17.3496L18.7519 38.386H15.8999Z" fill="#4C86A0"/>
<path d="M32.2454 35.9891H32.186L28.52 25.4783H25.7809V45.3281H28.6329V33.2549H28.6923L31.4908 41.789H32.9168L35.7451 33.2549H35.7985V45.3281H38.6565V25.4783H35.8817L32.2454 35.9891Z" fill="#4C86A0"/>
<path d="M43.7188 35.5097C44.1556 35.9154 44.6831 36.2116 45.2577 36.3738C45.8758 36.5612 46.5188 36.655 47.1649 36.652C47.4626 36.6567 47.7603 36.6429 48.0562 36.6105L48.6503 36.5395V45.3281H51.5023V25.4783H48.6503V33.8408L48.3414 33.9C48.2194 33.9201 48.0964 33.9339 47.973 33.9414H47.5274C47.2402 33.963 46.9515 33.9276 46.6781 33.8372C46.4048 33.7467 46.1522 33.6031 45.935 33.4147C45.7218 33.2001 45.5754 32.9289 45.5131 32.6335C45.4379 32.3234 45.4 32.0055 45.4003 31.6865V25.4783H42.5483V32.0298C42.5436 32.6919 42.6418 33.3507 42.8394 33.9828C42.9992 34.5572 43.3016 35.0823 43.7188 35.5097Z" fill="#4C86A0"/>
<path d="M57.967 41.0611H61.8588L62.6965 45.3281H65.5545L61.0982 25.4783H58.7216L54.2712 45.3281H57.1292L57.967 41.0611ZM59.8683 31.1953H59.9277L61.324 38.386H58.472L59.8683 31.1953Z" fill="#4C86A0"/>
<path d="M83.8904 45.3281H86.7483V37.581H88.1981C89.09 37.6185 89.9769 37.4312 90.7768 37.0366C91.4262 36.6749 91.9675 36.148 92.3454 35.5096C92.675 34.9819 92.8971 34.3947 92.999 33.7815C93.1135 33.0335 93.1651 32.2773 93.1534 31.5207C93.1777 30.5699 93.084 29.6197 92.8742 28.6918C92.6978 28.0101 92.3526 27.3833 91.87 26.869C91.4279 26.3755 90.8679 26.001 90.242 25.78C89.575 25.5626 88.876 25.4586 88.1743 25.4723H83.8904V45.3281ZM86.7483 28.1651H88.2278C88.6723 28.1394 89.1161 28.227 89.5171 28.4196C89.8121 28.5832 90.0473 28.8361 90.1885 29.1416C90.3448 29.4882 90.4297 29.8625 90.4381 30.2424C90.4381 30.6626 90.4381 31.1065 90.4381 31.5681C90.4381 32.0297 90.4381 32.5268 90.3965 32.9352C90.3801 33.2932 90.2891 33.6439 90.1291 33.965C89.9774 34.2671 89.7314 34.5122 89.428 34.6633C89.0064 34.8506 88.5462 34.9358 88.0852 34.9119H86.7483V28.1651Z" fill="#4C86A0"/>
<path d="M98.0375 41.0611H101.929L102.791 45.3281H105.643L101.187 25.4783H98.8099L94.3596 45.3281H97.2116L98.0375 41.0611ZM99.9388 31.1953H99.9923L101.395 38.386H98.5426L99.9388 31.1953Z" fill="#4C86A0"/>
<path d="M110.313 33.7875C110.313 34.3794 110.313 35.0422 110.313 35.711C110.313 36.3797 110.26 37.0307 110.2 37.664C110.152 38.2595 110.072 38.8521 109.962 39.4395C109.881 39.9263 109.745 40.4026 109.558 40.8599C109.364 41.2877 109.083 41.6706 108.733 41.9843C108.367 42.2993 107.903 42.4772 107.419 42.4874V45.3282H107.586C108.496 45.3561 109.388 45.065 110.105 44.5055C110.841 43.9001 111.425 43.1321 111.81 42.2625C112.098 41.5944 112.297 40.8923 112.404 40.1733C112.555 39.3329 112.668 38.4866 112.743 37.6344C112.814 36.7763 112.862 35.995 112.88 35.2671C112.898 34.5391 112.91 34.042 112.91 33.7461V27.9876H115.708V45.3282H118.56V25.4783H110.313V33.7875Z" fill="#4C86A0"/>
<path d="M135.506 29.0766C135.014 28.5223 134.379 28.113 133.67 27.8929C132.932 27.6609 132.162 27.5432 131.388 27.5437H131.055V25.4783H128.197V27.5674H127.865C127.091 27.5669 126.321 27.6846 125.583 27.9166C124.874 28.1366 124.239 28.546 123.747 29.1003C123.134 29.8208 122.723 30.6909 122.559 31.6214C122.32 32.7439 122.202 33.8888 122.208 35.0363C122.208 35.5216 122.208 36.0306 122.28 36.5691C122.322 37.1045 122.402 37.6364 122.517 38.1611C122.63 38.6715 122.789 39.1707 122.993 39.6525C123.176 40.1142 123.427 40.5468 123.735 40.9368C124.18 41.4835 124.759 41.9057 125.417 42.1619C126.191 42.4702 127.019 42.6211 127.853 42.6058H128.186V45.34H131.044V42.6117H131.376C132.21 42.627 133.038 42.4761 133.812 42.1678C134.469 41.9102 135.048 41.4883 135.494 40.9427C135.807 40.5516 136.061 40.1169 136.248 39.6525C136.444 39.1654 136.597 38.6625 136.706 38.1493C136.818 37.6241 136.898 37.0924 136.944 36.5573C136.991 36.0187 137.015 35.5097 137.015 35.0244C137.018 33.8771 136.901 32.7326 136.664 31.6096C136.51 30.6779 136.11 29.8037 135.506 29.0766ZM128.257 40.0905H127.663C127.252 40.1031 126.844 40.0157 126.474 39.836C126.166 39.6747 125.898 39.4461 125.69 39.1672C125.541 38.9561 125.432 38.7194 125.369 38.4689C125.269 38.1348 125.189 37.7949 125.132 37.4509C125.064 37.059 125.016 36.664 124.989 36.2673C124.989 35.8471 124.947 35.4446 124.947 35.0836C124.947 34.7226 124.947 34.3083 125.007 33.9C125.039 33.4889 125.095 33.0799 125.173 32.6749C125.239 32.3112 125.332 31.9531 125.452 31.6037C125.534 31.3343 125.667 31.0832 125.845 30.8639C126.079 30.6198 126.374 30.4421 126.7 30.349C127.041 30.2566 127.392 30.205 127.746 30.1951H128.281L128.257 40.0905ZM134.282 36.2554C134.254 36.6521 134.207 37.0472 134.139 37.4391C134.081 37.783 134.002 38.123 133.901 38.457C133.834 38.7116 133.721 38.9521 133.569 39.1672C133.361 39.4461 133.093 39.6747 132.784 39.836C132.415 40.0157 132.007 40.1031 131.596 40.0905H131.002V30.136H131.537C131.892 30.1463 132.245 30.1979 132.588 30.2898C132.912 30.3844 133.205 30.5619 133.438 30.8047C133.615 31.024 133.748 31.2752 133.83 31.5445C133.951 31.8939 134.044 32.2521 134.109 32.6157C134.187 33.0063 134.24 33.4147 134.282 33.8408C134.323 34.2669 134.335 34.6694 134.335 35.0244C134.335 35.3795 134.311 35.8352 134.282 36.2554Z" fill="#4C86A0"/>
<path d="M141.548 33.7875C141.548 34.3793 141.548 35.0422 141.548 35.711C141.548 36.3797 141.489 37.0307 141.435 37.664C141.382 38.2972 141.299 38.8891 141.192 39.4395C141.11 39.9263 140.974 40.4026 140.788 40.8599C140.605 41.2819 140.338 41.6624 140.004 41.9784C139.638 42.2934 139.174 42.4713 138.69 42.4815V45.3222H138.857C139.767 45.3502 140.659 45.059 141.376 44.4996C142.112 43.8928 142.698 43.1253 143.087 42.2566C143.374 41.5884 143.574 40.8863 143.681 40.1674C143.832 39.327 143.945 38.4807 144.02 37.6285C144.091 36.7703 144.139 35.9891 144.157 35.2612C144.175 34.5332 144.157 34.0361 144.157 33.7402V27.9876H146.955V45.3281H149.813V25.4783H141.495L141.548 33.7875Z" fill="#4C86A0"/>
<path d="M161.815 26.5079C161.354 26.1214 160.827 25.8207 160.259 25.6202C159.149 25.2099 157.928 25.2099 156.818 25.6202C156.258 25.8171 155.739 26.1183 155.291 26.5079C154.815 26.9348 154.434 27.4572 154.174 28.0408C153.883 28.7088 153.739 29.4313 153.753 30.1595V40.6467C153.733 41.383 153.877 42.1145 154.174 42.7891C154.433 43.3579 154.815 43.863 155.291 44.2687C155.735 44.6733 156.254 44.987 156.818 45.1919C157.93 45.5945 159.148 45.5945 160.259 45.1919C160.831 44.9832 161.359 44.6701 161.815 44.2687C162.278 43.8566 162.648 43.3526 162.903 42.7891C163.203 42.1154 163.347 41.3833 163.325 40.6467V30.1832C163.341 29.4547 163.197 28.7316 162.903 28.0644C162.649 27.4779 162.279 26.9484 161.815 26.5079ZM160.473 40.6467C160.493 40.9274 160.45 41.2091 160.348 41.4712C160.245 41.7334 160.085 41.9693 159.878 42.1618C159.503 42.4864 159.021 42.6613 158.524 42.653C158.025 42.6606 157.541 42.4858 157.163 42.1618C156.957 41.9693 156.797 41.7334 156.694 41.4712C156.591 41.2091 156.548 40.9274 156.569 40.6467V30.1832C156.548 29.9025 156.591 29.6208 156.694 29.3586C156.797 29.0965 156.957 28.8606 157.163 28.6681C157.541 28.3441 158.025 28.1693 158.524 28.1769C159.021 28.1685 159.503 28.3435 159.878 28.6681C160.085 28.8606 160.245 29.0965 160.348 29.3586C160.45 29.6208 160.493 29.9025 160.473 30.1832V40.6467Z" fill="#4C86A0"/>
<path d="M165.541 25.4783V28.1533H168.839V45.3281H171.696V28.1533H175V25.4783H165.541Z" fill="#4C86A0"/>
<path d="M72.8984 16.7192C74.5591 16.7192 76.1826 16.2286 77.5633 15.3094C78.9441 14.3903 80.0202 13.0839 80.6555 11.5555C81.2907 10.0271 81.4566 8.34537 81.1322 6.72304C80.8078 5.10071 80.0076 3.61066 78.8329 2.44138C77.6581 1.27209 76.1616 0.476108 74.5326 0.154107C72.9037 -0.167894 71.2154 -0.00144371 69.6814 0.632403C68.1474 1.26625 66.8366 2.33902 65.9148 3.715C64.993 5.09099 64.5016 6.70838 64.5028 8.36258C64.506 10.579 65.3917 12.7036 66.9657 14.2702C68.5396 15.8369 70.6733 16.7176 72.8984 16.7192ZM72.8984 3.06573C73.956 3.06573 74.9899 3.37812 75.8693 3.96339C76.7487 4.54867 77.4341 5.38055 77.8388 6.35383C78.2436 7.32711 78.3495 8.39808 78.1432 9.43131C77.9368 10.4645 77.4275 11.4136 76.6796 12.1585C75.9318 12.9035 74.979 13.4107 73.9416 13.6163C72.9043 13.8218 71.8291 13.7163 70.852 13.3132C69.8749 12.91 69.0397 12.2273 68.4521 11.3514C67.8645 10.4755 67.5509 9.44564 67.5509 8.39217C67.5509 6.97951 68.1143 5.62471 69.1171 4.62581C70.12 3.6269 71.4801 3.06573 72.8984 3.06573Z" fill="#4C86A0"/>
</g>
<defs>
<clipPath id="clip0">
<rect width="175" height="63" fill="white"/>
</clipPath>
</defs>
</svg>
