<svg width="47" height="47" viewBox="0 0 47 47" fill="none" xmlns="http://www.w3.org/2000/svg">
<path d="M24.9692 7.19022C25.0863 7.54192 25.2034 7.89361 25.3206 8.25507C25.3596 8.39184 25.3987 8.52861 25.4377 8.66538C25.5744 9.08546 25.711 9.50554 25.8477 9.91585C25.8769 10.0331 25.8672 10.1601 25.9648 10.2578C26.0429 10.6583 26.1795 11.0296 26.326 11.4106C26.3455 11.4692 26.365 11.518 26.3845 11.5766C26.4626 11.9479 26.5798 12.3093 26.7359 12.661C26.7457 12.7978 26.7652 12.9346 26.8628 13.042C26.98 13.4035 27.0873 13.7649 27.2045 14.1362C27.2435 14.2632 27.2338 14.4097 27.3411 14.5074C27.4485 15.0154 27.6047 15.5039 27.8194 15.9728C27.8878 16.3929 28.0244 16.7934 28.2001 17.1744C28.2001 17.2721 28.2001 17.3698 28.288 17.4382C28.3075 17.868 28.5222 18.0634 28.9615 17.995C29.1665 17.9657 29.3714 17.9657 29.5764 17.956C29.7424 18.0048 29.9083 18.0048 30.0743 17.9657C30.5623 17.995 31.0504 18.0146 31.5287 17.956C31.6946 18.0048 31.8605 18.0048 32.0265 17.9657C32.5145 17.995 33.0026 18.0146 33.4809 17.956C33.6468 18.0048 33.8128 18.0048 33.9787 17.9657C34.4668 17.995 34.9548 18.0146 35.4331 17.956C35.5991 18.0048 35.765 18.0048 35.9309 17.9657C36.419 17.995 36.9071 18.0146 37.3854 17.956C37.5513 18.0048 37.7172 18.0048 37.8832 17.9657C38.3712 17.995 38.8593 18.0146 39.3376 17.956C39.5035 18.0048 39.6695 18.0048 39.8354 17.9657C40.2942 17.9755 40.7432 17.9853 41.202 17.9853C41.8072 18.3467 41.8853 18.6398 41.5436 19.2651C41.5046 19.2651 41.4851 19.2846 41.4851 19.3237C39.7183 20.5839 37.9417 21.8441 36.214 23.163C35.5991 23.544 35.0232 23.9738 34.4668 24.4232C33.5687 25.068 32.7 25.7323 31.7727 26.3282C31.2944 26.6409 31.2261 26.9437 31.5189 27.3833C31.5189 27.5201 31.5579 27.6569 31.6458 27.7643C31.7141 28.1453 31.841 28.497 31.9972 28.8487C32.0265 28.9855 32.0265 29.1223 32.1339 29.2297C32.2412 29.5912 32.3584 29.9624 32.4657 30.3239C32.5145 30.4509 32.495 30.5974 32.6122 30.6951C32.6902 31.1054 32.8171 31.4962 32.9928 31.8772C33.0026 31.9847 32.9928 32.0921 33.0904 32.1703C33.1783 32.5903 33.3052 32.9909 33.4809 33.3817C33.5102 33.4696 33.5297 33.5575 33.559 33.6454C33.6761 33.9971 33.7933 34.3586 33.9104 34.7103C33.9299 34.8861 33.9787 35.0522 34.0861 35.2085C34.1349 35.5797 34.2911 35.9217 34.418 36.2734C34.4668 36.4101 34.5156 36.5371 34.5644 36.6739C34.6815 37.0256 34.7889 37.3871 34.906 37.7388C34.9451 37.8755 34.9939 38.0123 35.0329 38.1393C35.0524 38.237 35.072 38.3347 35.1012 38.4226C35.2379 38.7938 35.2965 39.1553 34.9744 39.4582C34.6425 39.7708 34.2911 39.6535 33.9397 39.4777C33.8323 39.3409 33.6859 39.2432 33.5297 39.1748C33.2954 38.9501 33.0319 38.7645 32.7488 38.6082C32.6414 38.4812 32.5048 38.3835 32.3486 38.3151C32.0558 38.1002 31.7727 37.8951 31.4799 37.6801C31.4115 37.6313 31.3432 37.5825 31.2749 37.5336C30.9918 37.3187 30.699 37.1135 30.4159 36.8986C30.3085 36.8204 30.2109 36.7521 30.1035 36.6739C29.8595 36.4981 29.6155 36.3222 29.3714 36.1464C29.2836 36.078 29.186 36.0096 29.0981 35.9412C28.8053 35.6872 28.5027 35.4527 28.1611 35.2671C28.0927 35.1597 27.9951 35.1011 27.878 35.0522C27.6437 34.8373 27.3899 34.6419 27.0971 34.4856C26.9897 34.3488 26.8531 34.2511 26.6969 34.1925C26.5017 33.9971 26.2772 33.8408 26.0331 33.704C25.9258 33.5673 25.7891 33.4794 25.6232 33.411C25.3303 33.196 25.0473 32.9909 24.7544 32.776C24.647 32.6978 24.5494 32.6294 24.4421 32.5513C24.0907 32.1214 23.749 32.1117 23.3195 32.4927C22.8803 32.8932 22.3727 33.2156 21.8944 33.577C21.3087 33.9971 20.7231 34.427 20.1471 34.8471C18.3609 36.1561 16.5648 37.4554 14.7785 38.7645C14.3002 39.0185 13.9293 39.4288 13.4315 39.6438C13.0996 39.6731 12.8263 39.5558 12.6213 39.2921C12.5822 39.1651 12.553 39.0283 12.5139 38.9013C12.7189 38.2175 12.9239 37.5336 13.1191 36.8498C13.2362 36.6348 13.3143 36.4101 13.3339 36.1659C13.6365 35.4625 13.8317 34.7298 14.0562 34.0069C14.1343 33.7529 14.2124 33.4891 14.2905 33.2351C14.5735 32.5317 14.798 31.8186 14.9933 31.0859C15.1202 30.8807 15.169 30.6463 15.2178 30.4118C15.452 29.6986 15.6961 28.9757 15.9303 28.2626C16.0279 27.9695 16.1353 27.6862 16.2329 27.3931C16.4672 26.6799 16.4672 26.6799 15.823 26.2794C15.7253 26.211 15.6375 26.1426 15.5399 26.0742C15.247 25.8202 14.9444 25.5858 14.6028 25.4002C14.5345 25.2927 14.4369 25.2341 14.3197 25.1852C14.0855 24.9605 13.8317 24.7749 13.5388 24.6186C13.4315 24.4818 13.2948 24.3939 13.1386 24.3255C12.8458 24.1106 12.5627 23.9055 12.2699 23.6905C12.2016 23.6417 12.1332 23.5928 12.0649 23.544C11.8306 23.3193 11.5671 23.1239 11.2743 22.9676C11.1474 22.8699 11.0107 22.782 10.8838 22.6843C10.6105 22.4498 10.3372 22.2251 10.0151 22.0591C9.97602 22.0298 9.92721 21.9907 9.88817 21.9614C9.59533 21.7074 9.28297 21.4729 8.94133 21.2775C8.84372 21.2091 8.75587 21.131 8.65826 21.0626C8.40447 20.877 8.14092 20.6914 7.88713 20.5155C7.8188 20.4178 7.73095 20.3494 7.61382 20.3104C7.36979 20.0857 7.10624 19.8903 6.82316 19.734C6.71579 19.5972 6.56937 19.4995 6.41319 19.4311C6.18869 19.2162 5.96418 19.0013 5.97394 18.6594C6.04227 18.249 6.2863 18.0146 6.70603 17.9462C7.19409 17.9657 7.68214 17.9853 8.16044 17.9364C8.32638 17.9853 8.49232 17.9853 8.65826 17.9462C9.14632 17.9755 9.63438 17.995 10.1127 17.9364C10.2786 17.9853 10.4446 17.9853 10.6105 17.9462C11.0986 17.9755 11.5866 17.995 12.0649 17.9364C12.2308 17.9853 12.3968 17.9853 12.5627 17.9462C13.0508 17.9755 13.5388 17.995 14.0171 17.9364C14.1831 17.9853 14.349 17.9853 14.515 17.9462C15.003 17.9755 15.4911 17.995 15.9694 17.9364C16.1353 17.9853 16.3012 17.9853 16.4672 17.9462C16.9552 17.9755 17.4433 17.995 17.9216 17.9364C18.273 17.9462 18.6342 17.9462 18.9856 17.9755C19.2198 17.995 19.3272 17.8974 19.3955 17.6727C19.5615 17.0963 19.7469 16.5297 19.9226 15.963C20.1667 15.2108 20.4107 14.4586 20.6547 13.6966C20.7719 13.4816 20.8402 13.2569 20.8695 13.0127C21.1721 12.3093 21.3673 11.5766 21.5918 10.8537C21.6699 10.5997 21.748 10.3359 21.8261 10.0819C22.1091 9.37854 22.3336 8.66538 22.5289 7.93269C22.6558 7.72753 22.7143 7.50284 22.7534 7.25861C22.8705 6.90691 22.9974 6.56499 23.1145 6.2133C23.3488 5.50991 23.6709 5.3536 24.3737 5.61737C24.4323 5.68575 24.5006 5.75414 24.5592 5.82252C24.6666 6.13514 24.7739 6.44776 24.8813 6.76037C24.8813 6.91668 24.9204 7.05345 24.9692 7.19022ZM31.9386 33.6454C31.8996 33.5087 31.8605 33.3719 31.8117 33.2351C31.6751 32.815 31.5384 32.395 31.4018 31.9847C31.3822 31.9163 31.3627 31.8479 31.3432 31.7893C31.2456 31.418 31.148 31.0566 30.982 30.7146C30.9918 30.5681 30.9332 30.4411 30.8649 30.3239C30.7868 29.9526 30.6697 29.5912 30.5135 29.2395C30.5037 29.1027 30.4745 28.9659 30.3866 28.8585C30.3183 28.4775 30.1816 28.1258 30.045 27.7643C30.0157 27.6373 30.0157 27.4908 29.9083 27.3931C29.8595 26.9632 29.5862 26.5725 29.7228 26.1231C29.9083 25.9472 30.1035 25.7714 30.289 25.5955C32.085 24.2865 33.8811 22.9774 35.6772 21.6585C36.663 20.9551 37.6489 20.2615 38.7324 19.4897C38.2248 19.4897 37.8734 19.4897 37.522 19.4897C37.034 19.4897 36.5459 19.4897 36.0578 19.4897C35.8919 19.4897 35.7357 19.4897 35.5698 19.4897C35.0817 19.4897 34.5937 19.4897 34.1056 19.4897C33.9397 19.4897 33.7835 19.4897 33.6176 19.4897C33.1295 19.4897 32.6414 19.4897 32.1534 19.4897C31.9874 19.4897 31.8313 19.4897 31.6653 19.4897C31.1773 19.4897 30.6892 19.4897 30.2011 19.4897C30.0352 19.4897 29.879 19.4897 29.7131 19.4897C29.225 19.4897 28.737 19.4897 28.2489 19.4897C28.083 19.48 27.9268 19.48 27.7609 19.4702C27.4778 19.3627 27.2826 19.1576 27.1654 18.8841C27.1264 18.7473 27.0776 18.6105 27.0385 18.4737C26.9019 18.0634 26.7652 17.6434 26.6286 17.233C26.609 17.1158 26.609 16.9888 26.5114 16.8911C26.4431 16.4906 26.2967 16.1096 26.1405 15.7383C26.121 15.6797 26.1015 15.6211 26.0819 15.5527C25.9941 15.1815 25.8867 14.82 25.7208 14.4683C25.7208 14.3218 25.6817 14.1948 25.5939 14.0873C25.5256 13.7063 25.3987 13.3546 25.2425 13.0029C25.223 12.8662 25.2132 12.7294 25.1058 12.6219C25.0277 12.2116 24.9008 11.8209 24.7251 11.4496C24.7251 11.3422 24.7251 11.2347 24.6275 11.1566C24.5787 10.7853 24.4225 10.4434 24.3054 10.0819C24.1687 9.65208 24.0419 9.232 23.9052 8.80215C23.8661 8.80215 23.8271 8.80215 23.7881 8.81192C23.5831 9.49577 23.3781 10.1796 23.1633 10.8635C22.89 11.5669 22.6558 12.28 22.4703 13.0127C22.3336 13.2569 22.2653 13.5305 22.2068 13.7943C21.9822 14.4879 21.748 15.1815 21.5235 15.8751C21.4356 16.1193 21.3185 16.3636 21.299 16.6273C21.0061 17.3307 20.7914 18.0537 20.5864 18.7766C20.4497 19.0892 20.2838 19.3627 19.9324 19.4604C19.4443 19.4604 18.9563 19.4702 18.4682 19.4702C18.3023 19.4702 18.1461 19.4702 17.9802 19.4702C17.4921 19.4702 17.0041 19.4702 16.516 19.4702C16.3501 19.4702 16.1939 19.4702 16.0279 19.4702C15.5399 19.4702 15.0518 19.4702 14.5638 19.4702C14.3978 19.4702 14.2416 19.4702 14.0757 19.4702C13.5876 19.4702 13.0996 19.4702 12.6115 19.4702C12.4456 19.4702 12.2894 19.4702 12.1235 19.4702C11.1278 19.4702 10.1322 19.4702 8.99014 19.4702C9.71247 19.9782 10.3274 20.4081 10.9424 20.8379C11.0107 20.9454 11.1083 21.004 11.2254 21.0528C11.4597 21.2678 11.7135 21.4631 12.0063 21.6194C12.1137 21.7562 12.2504 21.8539 12.4065 21.9125C12.6018 22.1079 12.8263 22.274 13.0703 22.401C13.1777 22.5378 13.3143 22.6257 13.4803 22.6941C13.7145 22.9188 13.9781 23.1141 14.2709 23.2705C14.3978 23.3682 14.5345 23.4561 14.6614 23.5538C14.9347 23.7882 15.208 24.0129 15.5301 24.179C15.5692 24.2083 15.618 24.2474 15.657 24.2767C15.9498 24.5307 16.2622 24.7652 16.6038 24.9605C16.7015 25.0289 16.7893 25.1071 16.8869 25.1755C17.1407 25.3611 17.4043 25.5467 17.6581 25.7225C17.7557 25.83 17.863 25.9277 17.9606 26.0352C18.1656 26.5529 17.824 26.9926 17.7654 27.4712C17.6385 27.6764 17.5995 27.9109 17.5409 28.1356C17.2969 28.8878 17.0529 29.64 16.8088 30.402C16.6917 30.617 16.6136 30.8416 16.5941 31.0859C16.3013 31.7893 16.0963 32.522 15.8718 33.2449C15.7937 33.4989 15.7156 33.7627 15.6375 34.0167C15.3544 34.7201 15.1299 35.4332 14.9444 36.1659C14.8371 36.3711 14.7395 36.5762 14.7687 36.8693C15.2178 36.5274 15.6277 36.2245 16.0279 35.9119C17.8142 34.6028 19.6103 33.3035 21.3966 31.9944C21.9725 31.5841 22.5484 31.164 23.1243 30.7537C23.5733 30.3825 24.0321 30.3532 24.5006 30.6951C24.5592 30.8123 24.6568 30.871 24.7837 30.9198C25.018 31.1445 25.2718 31.3301 25.5646 31.4864C25.672 31.6232 25.8086 31.7209 25.9648 31.7795C26.16 31.9749 26.3845 32.141 26.6286 32.268C26.7359 32.4047 26.8726 32.4927 27.0385 32.561C27.2728 32.7857 27.5363 32.9811 27.8292 33.1374C27.9561 33.2351 28.0927 33.3328 28.2196 33.4207C28.4929 33.6552 28.7663 33.8799 29.0884 34.046C29.1274 34.0753 29.1762 34.1144 29.2153 34.1437C29.5081 34.3977 29.8205 34.6321 30.1621 34.8275C30.2597 34.9057 30.3671 34.9838 30.4647 35.062C30.738 35.2867 31.0211 35.5211 31.3432 35.6774C31.841 36.0487 32.3291 36.4199 32.8269 36.8009C32.8659 36.7716 32.9147 36.7325 32.9538 36.7032C32.739 36.0682 32.5243 35.4332 32.3096 34.7982C32.1924 34.427 32.0655 34.0362 31.9386 33.6454Z" fill="#0D0D0D"/>
<path d="M29.2256 12.4559C29.372 12.28 29.5087 12.1042 29.6648 11.9479C33.4131 8.19645 37.1614 4.45482 40.9097 0.703415C41.0659 0.547107 41.2513 0.410337 41.427 0.263798C41.5832 0.263798 41.7394 0.263798 41.8956 0.254028C42.1298 0.390798 42.3348 0.547107 42.4129 0.820646C42.4324 1.05511 42.3836 1.2798 42.2665 1.49473C41.3001 2.45212 40.324 3.40951 39.3577 4.37666C36.3903 7.34652 33.4326 10.3164 30.4652 13.2862C29.8503 13.5598 29.6063 13.4914 29.2158 12.9346C29.2256 12.7782 29.2256 12.6122 29.2256 12.4559Z" fill="#0D0D0D"/>
<path d="M13.9097 46.9707C13.529 47.0684 13.2557 46.9023 13.0117 46.6385C12.9726 46.5408 12.9433 46.4431 12.9043 46.3454C12.9141 46.0328 13.0605 45.7984 13.2752 45.5834C16.594 42.2717 19.903 38.9599 23.2121 35.6481C23.4171 35.4429 23.6416 35.3062 23.9344 35.2964C24.0125 35.3062 24.0808 35.3257 24.1589 35.3355C24.5006 35.5602 24.6763 35.8728 24.5982 36.2929C24.442 36.4785 24.2956 36.6739 24.1296 36.8399C20.8987 40.0736 17.658 43.3072 14.427 46.5506C14.2709 46.7069 14.1244 46.873 13.9097 46.9707Z" fill="#0D0D0D"/>
<path d="M35.4628 15.6797C35.2481 15.2401 35.3457 14.8884 35.6971 14.5464C38.9085 11.3421 42.1199 8.13779 45.3314 4.92369C45.6925 4.56223 46.0635 4.46454 46.5027 4.73808C46.5613 4.80646 46.6198 4.87485 46.6784 4.94323C46.8248 5.38285 46.6882 5.71501 46.3661 6.03739C43.1644 9.22218 39.9725 12.4167 36.7806 15.6113C36.4878 15.9044 36.1852 16.0607 35.785 15.9337C35.6678 15.8458 35.5605 15.7578 35.4628 15.6797Z" fill="#0D0D0D"/>
<path d="M10.2301 41.3827C10.3863 41.8027 10.2497 42.1251 9.94707 42.4377C8.68788 43.6882 7.42869 44.9387 6.17926 46.1989C5.90595 46.4725 5.60335 46.619 5.2129 46.5115C5.11529 46.4431 5.02744 46.3748 4.92983 46.3161C4.64676 45.8472 4.76389 45.476 5.13481 45.1048C6.38424 43.8738 7.63367 42.6331 8.86358 41.3729C9.2345 40.9919 9.61519 40.8844 10.074 41.1873C10.1228 41.2459 10.1813 41.3143 10.2301 41.3827Z" fill="#0D0D0D"/>
<path d="M46.9902 13.9114C46.1507 14.8981 45.2625 15.8165 44.2571 16.6273C43.7397 16.6859 43.4469 16.4221 43.2809 15.963C43.2712 15.709 43.3688 15.5136 43.5445 15.3378C44.2571 14.6344 44.9599 13.931 45.6627 13.2178C45.8384 13.0322 46.0531 12.9345 46.3069 12.915C46.385 12.9345 46.4631 12.9443 46.5412 12.9638C46.8926 13.1787 47.039 13.5011 46.9902 13.9114Z" fill="#0D0D0D"/>
<path d="M11.8405 30.2261C12.5628 30.6267 12.6311 31.0956 12.0455 31.6818C8.64859 35.0717 5.26147 38.4714 1.86458 41.8613C1.64984 42.0763 1.41557 42.2228 1.10321 42.2423C0.781094 42.1544 0.576109 41.9395 0.439453 41.6464C0.439453 41.5194 0.439453 41.3924 0.439453 41.2752C0.556587 41.0603 0.722527 40.8844 0.888467 40.7086C4.23655 37.3675 7.58462 34.0166 10.9327 30.6755C11.0889 30.5192 11.2743 30.3824 11.45 30.2359C11.5769 30.2359 11.7136 30.2261 11.8405 30.2261Z" fill="#0D0D0D"/>
<path d="M0.0391261 33.6356C-0.0682467 33.2156 0.0684096 32.8932 0.380767 32.5903C3.00652 29.9722 5.63227 27.354 8.24826 24.7261C8.55086 24.4232 8.87298 24.2767 9.29271 24.3841C9.40008 24.4721 9.49769 24.5698 9.60507 24.6577C9.80029 25.0778 9.69292 25.4197 9.36104 25.7518C6.706 28.3993 4.05096 31.0468 1.41545 33.704C1.09333 34.0264 0.751691 34.1436 0.3222 33.9482C0.224588 33.8408 0.126977 33.7333 0.0391261 33.6356Z" fill="#0D0D0D"/>
<path d="M33.9886 0.361471C34.1448 0.801089 33.9788 1.12347 33.6665 1.44586C31.8314 3.26295 30.006 5.08003 28.2002 6.91666C27.8293 7.28789 27.4584 7.40512 26.9898 7.14135C26.9215 7.05343 26.8532 6.9655 26.7848 6.86781C26.6872 6.44773 26.8434 6.13511 27.146 5.83227C28.9811 4.01518 30.8064 2.1981 32.6123 0.361471C32.9344 0.0390851 33.2663 -0.0976848 33.6957 0.0586236C33.7934 0.166086 33.891 0.263778 33.9886 0.361471Z" fill="#0D0D0D"/>
</svg>
