<svg width="11" height="15" viewBox="0 0 11 15" fill="none" xmlns="http://www.w3.org/2000/svg">
<g clip-path="url(#clip0)">
<path d="M5.43485 0.00322457C7.93148 0.00322457 10.0632 1.53814 10.7659 3.78122C11.1274 4.93405 11.0565 6.07042 10.6511 7.20019C10.222 8.40243 9.60715 9.51574 8.92134 10.5961C8.01931 12.019 7.00242 13.3629 5.91121 14.6574C5.53283 15.1086 5.51931 15.1152 5.13756 14.6706C3.44161 12.7009 1.91458 10.6225 0.796342 8.28056C0.367288 7.37806 0.0226933 6.44262 -0.000955363 5.43142C-0.051631 2.87213 1.8335 0.592816 4.40445 0.102039C4.76931 0.0328688 5.13756 -0.0132445 5.43485 0.00322457ZM0.840261 5.29967C0.847018 5.58623 0.870666 5.8662 0.931477 6.14288C1.14769 7.13761 1.5835 8.0467 2.08013 8.92944C3.02607 10.6192 4.18148 12.1706 5.40783 13.6758C5.48553 13.7713 5.52607 13.7713 5.6004 13.6758C5.99904 13.162 6.41458 12.658 6.8031 12.1376C7.84702 10.7443 8.81999 9.30823 9.53621 7.72391C9.81661 7.10467 10.0632 6.46897 10.1308 5.78715C10.2659 4.42681 9.83688 3.24763 8.89431 2.24631C7.56999 0.839852 5.29972 0.405069 3.54634 1.2417C1.81323 2.06515 0.948369 3.44525 0.840261 5.29967Z" fill="#188C56"/>
<path d="M7.61841 5.37872C7.61165 6.53155 6.67584 7.43405 5.50017 7.43076C4.31436 7.42746 3.3853 6.50849 3.38868 5.34578C3.39544 4.19953 4.33801 3.28715 5.5103 3.29374C6.70287 3.30362 7.62517 4.216 7.61841 5.37872ZM5.53395 6.59743C6.25692 6.57437 6.8076 6.01442 6.77382 5.3359C6.74341 4.63102 6.17922 4.10731 5.47314 4.12707C4.76706 4.14683 4.21638 4.70019 4.23328 5.37213C4.25017 6.08688 4.81774 6.62048 5.53395 6.59743Z" fill="#188C56"/>
</g>
<defs>
<clipPath id="clip0">
<rect width="11" height="15" fill="white"/>
</clipPath>
</defs>
</svg>
