<svg width="47" height="47" viewBox="0 0 47 47" fill="none" xmlns="http://www.w3.org/2000/svg">
<path d="M28.5001 21.234C27.819 21.234 27.819 22.342 28.5001 22.342C29.1813 22.342 29.1813 21.234 28.5001 21.234Z" fill="#0D0D0D"/>
<path d="M21.6877 27.0738C20.6614 27.0738 20.6614 28.5542 21.6877 28.5542C22.5959 28.5542 22.5959 27.0738 21.6877 27.0738Z" fill="#0D0D0D"/>
<path d="M17.4829 26.5198C16.5747 26.5198 16.5747 27.8821 17.4829 27.8821C18.2821 27.8821 18.2821 26.5198 17.4829 26.5198Z" fill="#0D0D0D"/>
<path d="M24.413 16.6839C25.6663 16.6839 25.6663 14.8674 24.413 14.8674C23.2777 14.8674 23.2777 16.6839 24.413 16.6839Z" fill="#0D0D0D"/>
<path d="M31.1062 23.9132C32.1324 23.9132 32.1324 22.3784 31.1062 22.3784C30.0799 22.3784 30.089 23.9132 31.1062 23.9132Z" fill="#0D0D0D"/>
<path d="M28.7272 18.2551C30.2076 18.2551 30.2076 15.8665 28.7272 15.8665C27.1378 15.8665 27.1378 18.2551 28.7272 18.2551Z" fill="#0D0D0D"/>
<path d="M22.2509 30.0618C20.7705 30.0618 20.7705 32.4504 22.2509 32.4504C23.8403 32.4413 23.8403 30.0618 22.2509 30.0618Z" fill="#0D0D0D"/>
<path d="M16.1203 18.6002C15.094 18.6002 15.094 20.0806 16.1203 20.0806C17.0285 20.0715 17.0285 18.6002 16.1203 18.6002Z" fill="#0D0D0D"/>
<path d="M23.5045 0C10.5443 0 0 10.5443 0 23.5045C0 36.4647 10.5443 47.0091 23.5045 47.0091C36.4647 47.0091 47.0091 36.4647 47.0091 23.5045C47.0091 10.5443 36.4557 0 23.5045 0ZM1.58937 23.5045C1.58937 17.9372 3.71459 12.5787 7.52908 8.51903L14.6495 15.6303C12.9511 17.5376 11.9157 19.9353 11.6978 22.4783H7.97411C7.53816 22.4783 7.17488 22.8325 7.17488 23.2775C7.17488 23.7225 7.52908 24.0767 7.97411 24.0767H11.6705C11.7886 26.6924 12.7876 29.199 14.486 31.188L11.9612 33.7219C11.7614 33.9217 11.6796 34.2124 11.7523 34.4939C11.8249 34.7664 12.0429 34.9843 12.3154 35.057C12.5878 35.1297 12.8875 35.0479 13.0873 34.8481L15.6031 32.3324C17.5739 34.1034 20.0806 35.166 22.7235 35.3386V38.8352C22.7235 39.2711 23.0777 39.6344 23.5227 39.6344C23.9677 39.6344 24.3219 39.2802 24.3219 38.8352V35.3295C26.9467 35.1569 29.4352 34.1125 31.3969 32.3596L38.5082 39.4709C34.4576 43.2854 29.0991 45.4106 23.5227 45.4106C11.4162 45.4106 1.58937 35.5838 1.58937 23.5045ZM23.5045 13.2417C27.4916 13.2417 31.1244 15.5486 32.8046 19.1633C34.4939 22.778 33.9308 27.0466 31.3606 30.0982L30.5977 29.3353C31.3606 28.0819 31.1699 26.4653 30.1345 25.4209C29.09 24.3764 27.4734 24.1857 26.2201 24.9577L25.321 24.0586C26.8558 22.2875 26.765 19.6265 25.103 17.9644C23.441 16.3024 20.7799 16.2116 19.0089 17.7465L16.9109 15.6485C18.7546 14.0955 21.0887 13.2417 23.5045 13.2417ZM23.6862 33.7673C23.559 33.7401 23.4319 33.7401 23.3047 33.7673C19.3177 33.6947 15.7302 31.3152 14.1136 27.6732C12.497 24.0222 13.1418 19.7718 15.7666 16.7656L17.9917 18.9907C17.0381 20.7345 17.3469 22.896 18.7546 24.3038C20.1623 25.7115 22.3239 26.0203 24.0676 25.0667L25.103 26.102C24.3946 27.3463 24.6035 28.9175 25.6116 29.9347C26.6288 30.9519 28.1909 31.1608 29.4443 30.4433L30.2344 31.2334C28.4271 32.8319 26.102 33.7219 23.6862 33.7673ZM24.1948 22.9324L20.1351 18.8727C21.2885 17.9554 22.9415 18.0462 23.9768 19.0906C25.0122 20.1351 25.1121 21.788 24.1948 22.9324ZM22.8779 23.8678C21.8334 24.2311 20.6709 23.9677 19.8899 23.1776C19.1088 22.3965 18.8363 21.234 19.1996 20.1896L22.8779 23.8678ZM29.3988 28.1455L27.4099 26.1565C27.9729 25.984 28.5905 26.1384 29.0083 26.5561C29.417 26.9648 29.5714 27.5824 29.3988 28.1455ZM28.2363 29.2263C27.7005 29.3534 27.1374 29.19 26.7469 28.8085C26.3563 28.418 26.1929 27.8549 26.3291 27.319L28.2363 29.2263ZM39.5981 38.3447L35.2114 33.9581C35.1751 33.8672 35.1115 33.7855 35.0479 33.7129L32.5231 31.1789C34.2305 29.19 35.2205 26.6833 35.3386 24.0676H39.035C39.4709 24.0676 39.8342 23.7134 39.8342 23.2684C39.8342 22.8234 39.48 22.4692 39.035 22.4692H35.3113C35.0843 19.908 34.0398 17.4922 32.3233 15.5758L35.057 12.8512C35.2659 12.6514 35.3386 12.3608 35.2659 12.0792C35.1932 11.8068 34.9753 11.5888 34.7028 11.5161C34.4303 11.4435 34.1306 11.5252 33.9308 11.7341L31.188 14.4769C29.2535 12.824 26.8377 11.8431 24.3038 11.6705V7.75614C24.3038 7.32019 23.9496 6.95691 23.5045 6.95691C23.0595 6.95691 22.7053 7.31111 22.7053 7.75614V11.6796C20.1714 11.8522 17.7556 12.833 15.8211 14.486L13.0783 11.7432C13.0056 11.6705 12.9239 11.616 12.833 11.5797L8.65527 7.40193C12.6968 3.6601 17.9917 1.58937 23.4955 1.58937C35.5747 1.58937 45.4106 11.4162 45.4106 23.5045C45.4106 28.9992 43.3399 34.3032 39.5981 38.3447Z" fill="#0D0D0D"/>
</svg>
