<svg width="31" height="29" viewBox="0 0 31 29" fill="none" xmlns="http://www.w3.org/2000/svg">
<path d="M21.4395 29H9.56052C4.29008 29 0 24.7979 0 19.6295V9.37047C0 4.2048 4.29008 0 9.56052 0H21.4395C26.7099 0 31 4.2048 31 9.37047V19.6295C31 24.7979 26.7099 29 21.4395 29ZM9.56052 2.08233C5.46159 2.08233 2.12456 5.35302 2.12456 9.37047V19.6295C2.12456 23.647 5.45886 26.9177 9.56052 26.9177H21.4395C25.5384 26.9177 28.8754 23.647 28.8754 19.6295V9.37047C28.8754 5.35302 25.5384 2.08233 21.4395 2.08233H9.56052Z" fill="white"/>
<path d="M15.5004 22.8414C10.8061 22.8414 6.99121 19.0996 6.99121 14.5014C6.99121 9.90313 10.8089 6.15869 15.5004 6.15869C20.1919 6.15869 24.0095 9.90045 24.0095 14.5014C24.0095 19.0996 20.1919 22.8414 15.5004 22.8414ZM15.5004 8.24102C11.9804 8.24102 9.11304 11.0487 9.11304 14.4987C9.11304 17.9487 11.9776 20.7564 15.5004 20.7564C19.0204 20.7564 21.885 17.9487 21.885 14.4987C21.885 11.0487 19.0204 8.24102 15.5004 8.24102Z" fill="white"/>
<path d="M25.6452 6.41578C25.6452 7.3713 24.856 8.14481 23.8811 8.14481C22.9062 8.14481 22.1143 7.3713 22.1143 6.41578C22.1143 5.46027 22.9062 4.68408 23.8811 4.68408C24.856 4.68408 25.6452 5.46027 25.6452 6.41578Z" fill="white"/>
</svg>
