<svg width="14" height="15" viewBox="0 0 14 15" fill="none" xmlns="http://www.w3.org/2000/svg">
<g clip-path="url(#clip0)">
<path d="M12.5067 2.23883C10.1796 -0.362726 5.95936 -0.754551 3.09943 1.36486C1.59723 2.478 0.640539 3.94162 0.173598 5.83776L0 7.2594C0.00570213 7.36435 0.0107707 7.46994 0.0158393 7.57553C0.0272435 7.8147 0.0392814 8.06213 0.0614563 8.3013C0.221116 9.98563 0.757116 11.3265 1.69924 12.4002C3.68928 14.6665 6.34711 15.4228 10.0649 14.7804C10.2341 14.7511 10.3316 14.6519 10.3842 14.5737C10.4672 14.449 10.4957 14.29 10.4615 14.1379C10.3944 13.8371 10.0814 13.825 9.83111 13.8683C8.9118 14.0266 7.98679 14.075 7.08268 14.0133C5.39105 13.8969 3.99403 13.2862 2.92963 12.1985C1.9647 11.2114 1.41286 9.97482 1.24306 8.4177C1.02448 6.41532 1.41603 4.78187 2.43988 3.42448C3.88315 1.51243 5.87446 0.703341 8.35996 1.02074C9.74558 1.19757 10.796 1.71025 11.5728 2.58868C12.2697 3.37614 12.7215 4.46892 12.8463 5.66602C12.9704 6.85931 12.755 8.02333 12.2399 8.9431C12.0606 9.26305 11.8212 9.53084 11.5284 9.73883C10.9981 10.1154 10.4077 10.1656 9.90967 9.8775C9.31348 9.53211 9.38191 8.82733 9.41485 8.4883C9.45857 8.03605 9.57388 7.60352 9.68539 7.18625C9.72213 7.04949 9.75825 6.91274 9.79246 6.77598C9.84251 6.57243 9.8951 6.36953 9.94832 6.16662C10.0503 5.77416 10.1555 5.36834 10.2398 4.96825C10.3513 4.43966 10.229 4.25266 9.69616 4.13308C9.02711 3.9836 8.31054 3.97151 7.50527 4.09809C5.11735 4.4721 3.53596 6.49229 3.74503 8.90112C3.80522 9.59381 4.07576 10.1478 4.52749 10.504C4.9824 10.8628 5.58809 10.9957 6.27931 10.8882C7.02693 10.7725 7.63642 10.401 8.14328 9.75283L8.46703 9.3381L8.63683 9.83679C8.91243 10.6446 9.46427 10.9798 10.4254 10.9251C11.5481 10.8602 12.4598 10.3138 13.1352 9.29994C14.498 7.25558 14.2205 4.1547 12.5067 2.23883ZM8.94981 5.54644C8.84654 5.923 8.74834 6.3091 8.6533 6.68248C8.51202 7.23714 8.36629 7.81088 8.19903 8.37126C7.94814 9.21216 7.45775 9.7312 6.74182 9.91439C6.5942 9.95192 6.44848 9.971 6.30909 9.971C6.03349 9.971 5.77943 9.89785 5.57035 9.75473C5.2561 9.5391 5.06096 9.18799 5.00584 8.74019C4.99317 8.63969 4.98937 8.54173 4.98556 8.46286C4.9843 8.43487 4.98303 8.40879 4.98176 8.38589L4.98113 8.37572V8.36554C4.98937 6.94899 5.88967 5.58015 7.12133 5.11136C7.56483 4.94217 8.03937 4.89701 8.5703 4.9727C8.65774 4.98542 8.82056 5.00832 8.91687 5.15589C9.0157 5.30664 8.96819 5.48029 8.94981 5.54644Z" fill="#188C56"/>
</g>
<defs>
<clipPath id="clip0">
<rect width="14" height="15" fill="white"/>
</clipPath>
</defs>
</svg>
