<svg width="51" height="42" viewBox="0 0 51 42" fill="none" xmlns="http://www.w3.org/2000/svg">
<path d="M42.2296 18.4457C42.6395 18.0237 43.0938 18.0348 43.6034 18.2458C45.6088 19.0565 47.6141 19.845 49.6084 20.6668C50.4504 21.011 50.96 21.6773 50.9711 22.588C51.0043 25.2755 51.0154 27.9519 50.9711 30.6394C50.96 31.5167 50.4282 32.1497 49.5973 32.4828C45.5091 34.1264 41.4208 35.7811 37.3326 37.4247C34.308 38.6463 31.2723 39.8568 28.2366 41.0673C26.4307 41.7891 24.6026 41.8002 22.7967 41.0784C15.706 38.2243 8.62644 35.3702 1.54684 32.5162C0.560795 32.1164 0.0179151 31.3279 0.0179151 30.284C0.00683594 27.8186 0.0179151 25.3532 0.00683594 22.8989C0.00683594 21.8217 0.483241 21.0554 1.48037 20.6445C3.53002 19.8116 5.59075 19.001 7.6404 18.1681C8.10572 17.9793 8.46026 18.1347 8.79263 18.4457C8.85911 18.9565 8.72616 19.3452 8.19436 19.5229C8.03925 19.5784 7.9063 19.6562 7.75119 19.7228C7.49637 19.8228 7.24154 19.9116 6.98672 20.0115C6.94241 20.0338 6.90917 20.056 6.86485 20.0893C5.22513 20.7334 3.57433 21.3775 1.92354 22.0438C1.59116 22.1771 1.44713 22.4658 1.44713 22.8434C1.44713 23.221 1.61332 23.4875 1.93461 23.6319C2.35562 23.8096 2.78771 23.965 3.2198 24.1205C3.35275 24.2205 3.50786 24.2871 3.67405 24.3093C6.05607 25.3199 8.46025 26.2972 10.8755 27.2078C11.0528 27.2855 11.2411 27.3633 11.4184 27.4521C11.784 27.5965 12.1607 27.7409 12.5263 27.8852C12.615 27.9963 12.759 28.0074 12.8808 28.0296C13.3019 28.2295 13.7339 28.4294 14.1882 28.5516C14.3101 28.6737 14.4763 28.707 14.6314 28.7515C15.0302 28.9291 15.418 29.1401 15.8501 29.229C15.9276 29.34 16.0495 29.34 16.1714 29.3734C16.5148 29.5621 16.8804 29.7065 17.2571 29.8065C17.4233 29.9397 17.6338 29.9953 17.8332 30.0508C19.5394 30.7393 21.2456 31.4278 22.9408 32.1053C23.0405 32.183 23.1402 32.2385 23.2731 32.2274C23.3618 32.3385 23.4836 32.3385 23.6055 32.3385C23.8049 32.4717 24.0376 32.5384 24.2813 32.5384C24.7467 32.705 25.2341 32.705 25.7216 32.6605C25.9986 32.6716 26.2756 32.705 26.5304 32.5717C27.306 32.494 28.0039 32.1386 28.713 31.8498C28.7462 31.8276 28.7906 31.8054 28.8238 31.7832C29.2116 31.6833 29.5883 31.55 29.9428 31.339C30.807 31.0503 31.649 30.6949 32.4799 30.3173C32.8345 30.2285 33.1558 30.0952 33.4771 29.9175C34.4077 29.5399 35.3605 29.2512 36.2579 28.7959C36.6014 28.6848 36.9781 28.6293 37.2551 28.3406C38.1857 28.1184 39.0388 27.7075 39.9141 27.3189C40.3018 27.2189 40.6785 27.0856 41.022 26.8746C41.9305 26.5637 42.8279 26.2083 43.6921 25.7974C43.9469 25.6975 44.2017 25.6086 44.4565 25.5087C44.5009 25.4865 44.5341 25.4643 44.5784 25.4421C44.6116 25.4198 44.656 25.3976 44.6892 25.3754C46.207 24.8979 47.6584 24.2427 49.1209 23.6319C49.7524 23.3654 49.7302 22.3659 49.1319 22.0438C48.8106 21.8772 48.4561 21.7884 48.1127 21.6662C47.9686 21.5996 47.8135 21.533 47.6695 21.4663C46.1184 20.8444 44.5895 20.1892 43.0273 19.6006C42.4401 19.3785 42.1631 19.0454 42.2296 18.4457ZM49.5419 25.12C49.3092 25.0867 49.1541 25.1977 48.9879 25.2644C42.1964 27.9963 35.3938 30.7171 28.6022 33.4601C26.9403 34.1264 25.2563 34.3819 23.5279 33.8488C22.6195 33.5712 21.7331 33.1936 20.8468 32.8382C14.5316 30.2951 8.21651 27.752 1.91246 25.1977C1.50253 25.0312 1.42497 25.1089 1.43605 25.5309C1.45821 27.0634 1.45821 28.6071 1.43605 30.1396C1.42497 30.6727 1.64656 30.9947 2.13404 31.1946C9.13609 34.0043 16.1271 36.825 23.1291 39.6458C24.6913 40.2788 26.2313 40.301 27.8045 39.668C32.2029 37.8912 36.6125 36.1365 41.022 34.3596C43.5813 33.3269 46.1406 32.3052 48.6999 31.2724C49.0987 31.1169 49.5308 30.9614 49.5308 30.4284C49.553 28.6626 49.5419 26.8969 49.5419 25.12Z" fill="#0D0D0D"/>
<path d="M16.748 15.2917C17.0914 14.1812 17.3795 13.0596 17.8891 12.0046C18.6979 10.3054 19.7947 8.80622 20.9137 7.3181C22.0438 5.81888 23.2625 4.37519 24.1156 2.67607C24.4037 2.09859 24.6253 1.4878 24.8247 0.877002C24.9244 0.543842 25.1792 0.399472 25.4894 0.388367C25.7996 0.388367 26.0655 0.521631 26.1653 0.854791C26.8632 3.22023 28.4033 5.07482 29.8546 6.98494C31.3282 8.90617 32.7795 10.8385 33.5994 13.1595C33.8431 13.848 34.0315 14.5699 34.2531 15.2695C34.3195 16.1802 34.3971 17.0908 34.4636 17.9903C34.2863 18.379 34.3971 18.801 34.3417 19.2008C34.2863 19.4674 34.2198 19.7228 34.1644 19.9893C33.8431 21.0554 33.3778 22.0549 32.7574 22.9655C32.1923 23.7096 31.5276 24.3537 30.8074 24.9534C29.8546 25.6086 28.8132 26.0861 27.7163 26.4304C27.4948 26.4748 27.2732 26.5192 27.0516 26.5526C26.4644 26.597 25.8661 26.6414 25.2789 26.6747C25.0906 26.6636 24.9133 26.6636 24.725 26.6525C24.2486 26.5748 23.7611 26.497 23.2847 26.4193C23.1517 26.3193 23.0077 26.2971 22.8415 26.2971C22.5534 26.1861 22.2543 26.075 21.9662 25.9751C21.9219 25.9529 21.8887 25.9307 21.8444 25.8973C21.8111 25.8862 21.7668 25.8751 21.7336 25.864C21.6117 25.753 21.4677 25.6641 21.2904 25.6419C19.5953 24.6535 18.2769 23.2987 17.3905 21.5329C17.3351 21.4219 17.2908 21.2997 17.2354 21.1887C17.1025 20.7889 16.9695 20.3891 16.8255 19.9782C16.759 19.7117 16.7036 19.4451 16.6372 19.1786C16.615 18.8121 16.6261 18.4457 16.5264 18.0903C16.5596 17.3906 16.5928 16.691 16.6261 15.9914C16.6815 15.8914 16.7479 15.8026 16.6704 15.6804L16.7147 15.6582V15.6138C16.7258 15.5138 16.7369 15.4028 16.748 15.2917ZM25.5116 3.17581C24.9798 4.15308 24.4701 5.0193 23.8608 5.82999C22.8747 7.14042 21.8665 8.43974 20.9026 9.77238C19.2518 12.0601 18.0775 14.5255 18.0442 17.424C17.9999 20.4668 19.2851 22.8212 21.933 24.276C24.6031 25.7419 27.3286 25.5864 29.8103 23.8206C32.7241 21.7439 33.411 18.7899 32.7463 15.4139C32.281 13.0374 31.0623 11.0273 29.6441 9.10606C28.226 7.19594 26.6527 5.39688 25.5116 3.17581Z" fill="#0D0D0D"/>
<path d="M40.4671 9.77242C40.6887 10.3943 40.6887 11.0384 40.6887 11.6825C40.6776 13.7481 40.6887 15.8248 40.6998 17.8904C40.6998 19.0565 40.6887 20.2226 40.7108 21.3775C40.7219 21.8439 40.5779 22.166 40.1347 22.3326C39.747 22.3548 39.4811 22.1882 39.2816 21.855C39.2595 21.6774 39.2484 21.4886 39.2262 21.3109C39.2373 20.3669 39.2152 19.4341 39.2595 18.4901C39.2816 18.057 39.1154 17.8904 38.7166 17.8571C38.5504 17.7239 38.351 17.6683 38.1516 17.6239C38.0962 17.5351 38.0075 17.5351 37.9189 17.5351C37.7527 17.4129 37.5644 17.3352 37.3649 17.313C37.0658 17.1797 36.7777 17.0353 36.4675 16.9243C35.9911 16.7355 35.7695 16.4245 35.9136 15.9026C36.1795 15.4584 36.5562 15.4028 37.0104 15.5805C37.6087 15.8248 38.207 16.0469 38.8052 16.3024C39.1376 16.4356 39.2595 16.369 39.2595 15.9914C39.2484 14.3256 39.2595 12.6709 39.2484 11.0051C39.2484 10.4054 38.8939 10.0389 38.2956 10.0056C37.93 9.98342 37.5533 10.0056 37.1877 9.99453C36.4564 9.96121 36.1351 9.39484 36.5229 8.77294C37.4314 7.31814 38.3621 5.87444 39.2927 4.43075C39.6916 3.81995 40.2677 3.81995 40.6665 4.41964C41.6083 5.87444 42.5389 7.34035 43.4696 8.80626C43.7133 9.19494 43.7022 9.55031 43.3145 9.82795C42.9267 10.1167 42.5389 10.0167 42.3063 9.63916C42.1622 9.45037 42.1511 9.43926 41.9739 9.15052C41.3202 8.12883 40.6665 7.10714 39.9685 6.02992C39.4257 6.88503 38.916 7.68462 38.3731 8.52862C39.3481 8.60636 39.9353 9.12831 40.4671 9.77242Z" fill="#0D0D0D"/>
<path d="M11.773 20.1003C11.7619 20.5445 11.7619 20.9888 11.7508 21.433C11.7397 21.9993 11.4517 22.3436 10.9974 22.3214C10.5543 22.3103 10.2994 22.0105 10.2994 21.4441C10.2994 20.2669 10.2994 19.0786 10.2994 17.9015C10.2994 15.6249 10.3105 13.3594 10.3105 11.0828C10.3105 10.372 9.92275 10.0056 9.2026 10.0056C8.90347 10.0056 8.61541 10.0167 8.31627 10.0056C7.51857 9.98336 7.20835 9.46141 7.61828 8.77287C8.30519 7.62902 9.02534 6.50738 9.7344 5.38574C9.94491 5.05258 10.1333 4.71942 10.3548 4.39737C10.7537 3.81989 11.3076 3.80878 11.6954 4.39737C12.6371 5.85217 13.5678 7.31807 14.4984 8.78398C14.7422 9.16156 14.72 9.53914 14.3766 9.82788C13.9999 10.1388 13.6121 9.99446 13.3684 9.6502C13.1357 9.29483 13.1911 9.42809 13.0028 9.12824C12.3602 8.11766 11.7065 7.11818 11.0307 6.05206C10.4878 6.91828 10.0003 7.69566 9.47958 8.53966C10.4435 8.58408 11.0085 9.15046 11.5403 9.76125C11.9835 11.7491 11.6733 13.7703 11.7619 15.7804C11.7951 16.4911 11.7619 16.48 12.4266 16.2246C12.9584 16.0136 13.4902 15.8026 14.022 15.5916C14.4763 15.4139 14.853 15.4805 15.1189 15.9247C15.3183 16.7021 14.6979 16.8576 14.2104 17.113C13.9556 17.1019 13.7672 17.2574 13.5567 17.3462C12.9695 17.6127 12.1053 17.6349 11.8394 18.1569C11.5625 18.6788 11.773 19.4451 11.773 20.1003Z" fill="#0D0D0D"/>
<path d="M6.99785 20.0226C6.95353 20.0448 6.9203 20.067 6.87598 20.1003C6.90922 20.067 6.95353 20.0448 6.99785 20.0226Z" fill="#0D0D0D"/>
<path d="M44.4463 25.5087C44.4906 25.4865 44.5238 25.4643 44.5682 25.4421C44.5349 25.4532 44.4906 25.4865 44.4463 25.5087Z" fill="#0D0D0D"/>
<path d="M28.7129 31.8276C28.7461 31.8054 28.7904 31.7832 28.8237 31.761C28.7904 31.7832 28.7572 31.8054 28.7129 31.8276Z" fill="#0D0D0D"/>
<path d="M16.6367 16.0025C16.6478 15.9025 16.67 15.7915 16.681 15.6915C16.7586 15.8026 16.6921 15.9025 16.6367 16.0025Z" fill="#0D0D0D"/>
<path d="M21.9656 25.9751C21.9213 25.9529 21.8881 25.9307 21.8438 25.8973C21.8881 25.9307 21.9213 25.9529 21.9656 25.9751Z" fill="#0D0D0D"/>
<path d="M30.0425 21.0665C29.1673 21.122 28.8238 20.6334 29.2227 19.8782C29.7212 18.9121 29.6437 17.8904 29.5551 16.8576C29.544 16.691 29.4997 16.5355 29.4886 16.369C29.4664 15.9247 29.688 15.6582 30.109 15.5916C30.5079 15.5249 30.7848 15.7471 30.9067 16.1246C30.9953 16.4356 31.0286 16.7687 31.084 17.1019C31.0951 18.0237 31.1726 18.9454 30.8402 19.8338C30.6408 20.3003 30.4968 20.7778 30.0425 21.0665Z" fill="#0D0D0D"/>
<path d="M20.8243 20.5445C21.3339 19.9448 21.7217 19.9337 22.2092 20.5445C22.7299 21.1886 23.3614 21.6773 24.137 21.966C24.9236 22.2658 25.0344 22.6767 24.5026 23.3431C24.2256 23.4763 23.9486 23.443 23.6606 23.3431C22.5637 22.9655 21.7106 22.277 21.0016 21.3774C20.8575 21.1886 20.8243 20.9776 20.7578 20.7777V20.7444C20.78 20.6667 20.8021 20.6111 20.8243 20.5445Z" fill="#0D0D0D"/>
<path d="M19.9389 17.9903C20.2824 17.4351 20.6369 17.2796 21.0469 17.535C21.4457 17.7904 21.4457 18.168 21.2906 18.5567C21.1023 19.012 20.6591 19.0787 20.094 18.7677C19.9279 18.5234 19.9057 18.2569 19.9389 17.9903Z" fill="#0D0D0D"/>
<path d="M20.8243 20.5446C20.8021 20.6112 20.78 20.6667 20.7578 20.7333C20.78 20.6667 20.8021 20.6112 20.8243 20.5446Z" fill="#0D0D0D"/>
</svg>
