<svg width="273" height="99" viewBox="0 0 273 99" fill="none" xmlns="http://www.w3.org/2000/svg">
<g clip-path="url(#clip0)">
<path d="M121.192 93.7546V33.1363H134.808V28.9233H114.935V33.1363H116.789V94.0801C115.807 94.0801 114.806 94.1545 113.795 94.1731C113.091 94.1731 112.396 94.1731 111.71 94.1266V33.1363H113.48V28.9233H93.6168V33.1363H107.233V93.8383C79.5372 91.2994 64.6789 75.6752 64.5214 75.5078L61.0084 78.7814C61.7499 79.5905 79.324 98.1815 112.665 98.9627H113.74H114.824C148.193 98.1815 165.739 79.5905 166.48 78.7814L162.958 75.5078C162.81 75.6845 148.369 90.9739 121.192 93.7546Z" fill="white"/>
<path d="M10.6964 42.0087C10.3786 42.4435 10.1141 42.915 9.90857 43.4131C9.71477 43.8818 9.55372 44.3634 9.42658 44.8546C9.32267 45.2646 9.24526 45.6808 9.19485 46.1008C9.14542 46.4728 9.10834 46.7146 9.08362 46.8262L8.64798 50.5463C8.59443 50.9221 8.52017 51.2947 8.42553 51.6623C8.35038 52.0007 8.20162 52.3183 7.98988 52.5923C7.78337 52.8606 7.51225 53.0718 7.20202 53.2061C6.80261 53.3703 6.37271 53.4464 5.94143 53.4293H4.44912V40.0371H0V71.2298H4.44912V57.3447H6.94248L10.8725 71.2298H15.4144L10.7799 55.373C11.0471 55.1622 11.2869 54.9185 11.4936 54.6476C11.7555 54.3228 11.9708 53.9628 12.1331 53.5781C12.2508 53.3163 12.3379 53.0416 12.3927 52.7597C12.4483 52.4528 12.5039 52.1552 12.5688 51.8297C12.6337 51.5042 12.6707 51.1601 12.6985 50.7788L13.0878 47.1424C13.1527 46.6774 13.2176 46.2124 13.3103 45.8683C13.3857 45.5208 13.552 45.1998 13.7923 44.9383C13.9895 44.6957 14.2445 44.507 14.5338 44.3896C14.855 44.2758 15.1943 44.2222 15.5349 44.2315V40.0371C14.5886 40.0255 13.6475 40.1797 12.7542 40.4928C11.9436 40.8009 11.2321 41.325 10.6964 42.0087Z" fill="white"/>
<path d="M25.1932 40.0372L18.2507 71.2299H22.7091L24.0161 64.5245H30.0872L31.3942 71.2299H35.8433L28.9008 40.0372H25.1932ZM24.8039 60.3208L26.9821 49.0212H27.0656L29.253 60.3208H24.8039Z" fill="white"/>
<path d="M50.3028 56.5543H50.2101L44.4912 40.0372H40.2181V71.2299H44.6673V52.2576H44.76L49.1257 65.6684H51.3502L55.7623 52.2576H55.8457V71.2299H60.3041V40.0372H55.9754L50.3028 56.5543Z" fill="white"/>
<path d="M68.2015 55.801C68.8829 56.4384 69.7058 56.9038 70.6021 57.1588C71.5665 57.4533 72.5695 57.6006 73.5775 57.5959C74.0418 57.6033 74.5062 57.5816 74.9678 57.5308L75.8947 57.4192V71.2299H80.3439V40.0372H75.8947V53.1783L75.4128 53.2713C75.2224 53.3029 75.0306 53.3247 74.8381 53.3364H74.1429C73.6949 53.3704 73.2445 53.3147 72.8181 53.1726C72.3917 53.0305 71.9976 52.8049 71.6588 52.5087C71.3263 52.1716 71.0978 51.7453 71.0007 51.2811C70.8834 50.7939 70.8242 50.2943 70.8246 49.7931V40.0372H66.3755V50.3325C66.3683 51.3729 66.5215 52.4081 66.8297 53.4015C67.079 54.3042 67.5507 55.1294 68.2015 55.801Z" fill="white"/>
<path d="M90.4282 64.5245H96.4994L97.8063 71.2299H102.265L95.3129 40.0372H91.6053L84.6628 71.2299H89.1212L90.4282 64.5245ZM93.3942 49.0212H93.4869L95.6651 60.3208H91.216L93.3942 49.0212Z" fill="white"/>
<path d="M130.869 71.2298H135.328V59.056H137.589C138.98 59.1148 140.364 58.8205 141.612 58.2003C142.625 57.6321 143.469 56.804 144.059 55.8009C144.573 54.9716 144.92 54.0489 145.079 53.0853C145.257 51.9098 145.338 50.7215 145.32 49.5326C145.357 48.0384 145.211 46.5453 144.884 45.0871C144.609 44.0159 144.07 43.031 143.317 42.2227C142.628 41.4472 141.754 40.8587 140.778 40.5115C139.737 40.1699 138.647 40.0064 137.552 40.0279H130.869V71.2298ZM135.328 44.2594H137.636C138.329 44.2191 139.021 44.3567 139.647 44.6593C140.107 44.9165 140.474 45.3139 140.694 45.794C140.938 46.3386 141.07 46.9269 141.084 47.5238C141.084 48.1841 141.084 48.8816 141.084 49.607C141.084 50.3324 141.084 51.1136 141.019 51.7553C140.993 52.318 140.851 52.8691 140.602 53.3736C140.365 53.8484 139.981 54.2335 139.508 54.471C138.85 54.7653 138.132 54.8992 137.413 54.8616H135.328V44.2594Z" fill="white"/>
<path d="M152.938 64.5245H159.01L160.354 71.2299H164.803L157.851 40.0372H154.143L147.201 71.2299H151.65L152.938 64.5245ZM155.904 49.0212H155.988L158.175 60.3208H153.726L155.904 49.0212Z" fill="white"/>
<path d="M172.088 53.0946C172.088 54.0246 172.088 55.0663 172.088 56.1172C172.088 57.1681 172.005 58.1911 171.912 59.1862C171.837 60.122 171.713 61.0533 171.541 61.9763C171.414 62.7412 171.202 63.4898 170.911 64.2083C170.608 64.8806 170.17 65.4823 169.623 65.9753C169.053 66.4703 168.328 66.7499 167.574 66.7658V71.2299H167.834C169.254 71.2738 170.645 70.8163 171.764 69.9372C172.912 68.9858 173.822 67.7789 174.424 66.4124C174.872 65.3626 175.184 64.2592 175.351 63.1295C175.586 61.8089 175.762 60.4789 175.879 59.1397C175.99 57.7912 176.065 56.5636 176.092 55.4197C176.12 54.2757 176.139 53.4945 176.139 53.0295V43.9805H180.504V71.2299H184.954V40.0372H172.088V53.0946Z" fill="white"/>
<path d="M211.389 45.6917C210.622 44.8208 209.631 44.1775 208.525 43.8317C207.373 43.4671 206.173 43.2821 204.966 43.283H204.446V40.0372H199.988V43.3202H199.469C198.262 43.3193 197.061 43.5043 195.91 43.8689C194.804 44.2147 193.813 44.858 193.046 45.7289C192.088 46.8612 191.449 48.2286 191.192 49.6908C190.819 51.4547 190.635 53.2538 190.645 55.057C190.645 55.8196 190.645 56.6194 190.756 57.4657C190.823 58.3071 190.947 59.1429 191.127 59.9674C191.303 60.7695 191.551 61.5539 191.868 62.3111C192.155 63.0365 192.546 63.7163 193.027 64.3292C193.72 65.1884 194.624 65.8518 195.65 66.2543C196.858 66.7388 198.15 66.976 199.45 66.9518H199.97V71.2485H204.428V66.9611H204.947C206.247 66.9853 207.54 66.7481 208.747 66.2636C209.772 65.8589 210.676 65.1958 211.37 64.3385C211.859 63.7239 212.256 63.0409 212.548 62.3111C212.852 61.5455 213.091 60.7552 213.261 59.9488C213.437 59.1235 213.56 58.2879 213.632 57.4471C213.706 56.6008 213.743 55.801 213.743 55.0384C213.748 53.2354 213.565 51.4368 213.196 49.6722C212.956 48.2081 212.332 46.8343 211.389 45.6917ZM200.081 62.9993H199.154C198.513 63.019 197.876 62.8818 197.3 62.5994C196.819 62.3459 196.4 61.9866 196.077 61.5485C195.844 61.2167 195.674 60.8447 195.576 60.451C195.419 59.9261 195.295 59.3919 195.205 58.8514C195.1 58.2356 195.026 57.6148 194.983 56.9914C194.983 56.3311 194.918 55.6987 194.918 55.1314C194.918 54.5641 194.918 53.913 195.011 53.2713C195.061 52.6253 195.148 51.9826 195.27 51.3462C195.372 50.7748 195.518 50.212 195.706 49.6629C195.834 49.2396 196.041 48.845 196.318 48.5004C196.683 48.1167 197.144 47.8375 197.652 47.6912C198.185 47.5461 198.732 47.4649 199.284 47.4494H200.118L200.081 62.9993ZM209.48 56.9728C209.437 57.5962 209.362 58.217 209.257 58.8328C209.167 59.3733 209.043 59.9075 208.886 60.4325C208.781 60.8325 208.605 61.2104 208.367 61.5485C208.043 61.9866 207.625 62.3459 207.144 62.5994C206.567 62.8818 205.931 63.019 205.29 62.9993H204.363V47.3564H205.197C205.752 47.3726 206.302 47.4538 206.838 47.5982C207.343 47.7468 207.8 48.0258 208.163 48.4074C208.44 48.7519 208.647 49.1466 208.775 49.5699C208.963 50.119 209.109 50.6818 209.211 51.2532C209.331 51.867 209.415 52.5087 209.48 53.1783C209.544 53.8479 209.563 54.4804 209.563 55.0384C209.563 55.5964 209.526 56.3125 209.48 56.9728Z" fill="white"/>
<path d="M220.815 53.0946C220.815 54.0246 220.815 55.0663 220.815 56.1172C220.815 57.1681 220.723 58.1911 220.639 59.1862C220.556 60.1813 220.426 61.1113 220.259 61.9763C220.132 62.7412 219.92 63.4897 219.629 64.2083C219.344 64.8714 218.928 65.4695 218.406 65.966C217.835 66.461 217.111 66.7406 216.357 66.7565V71.2206H216.617C218.037 71.2645 219.428 70.807 220.547 69.9279C221.695 68.9744 222.608 67.7683 223.216 66.4031C223.664 65.3532 223.976 64.2498 224.143 63.1202C224.378 61.7996 224.554 60.4696 224.671 59.1304C224.783 57.7819 224.857 56.5543 224.885 55.4104C224.912 54.2664 224.885 53.4852 224.885 53.0202V43.9805H229.25V71.2299H233.709V40.0372H220.732L220.815 53.0946Z" fill="white"/>
<path d="M252.432 41.6554C251.713 41.0481 250.89 40.5755 250.004 40.2604C248.273 39.6157 246.368 39.6157 244.637 40.2604C243.762 40.5698 242.954 41.0432 242.255 41.6554C241.511 42.3263 240.918 43.1471 240.512 44.0641C240.058 45.1139 239.834 46.2493 239.854 47.3936V63.8735C239.824 65.0306 240.049 66.18 240.512 67.2401C240.916 68.1339 241.511 68.9276 242.255 69.5651C242.946 70.2009 243.756 70.6939 244.637 71.016C246.37 71.6485 248.27 71.6485 250.004 71.016C250.896 70.688 251.72 70.196 252.432 69.5651C253.153 68.9176 253.731 68.1255 254.128 67.2401C254.596 66.1814 254.821 65.0309 254.787 63.8735V47.4308C254.812 46.2861 254.587 45.1497 254.128 44.1013C253.733 43.1796 253.156 42.3476 252.432 41.6554ZM250.337 63.8735C250.37 64.3145 250.303 64.7572 250.143 65.1692C249.982 65.5811 249.732 65.9519 249.411 66.2543C248.825 66.7644 248.072 67.0393 247.297 67.0262C246.519 67.0381 245.764 66.7635 245.175 66.2543C244.853 65.9519 244.603 65.5811 244.442 65.1692C244.282 64.7572 244.216 64.3145 244.248 63.8735V47.4308C244.216 46.9897 244.282 46.547 244.442 46.1351C244.603 45.7231 244.853 45.3524 245.175 45.05C245.764 44.5408 246.519 44.2661 247.297 44.278C248.072 44.2649 248.825 44.5399 249.411 45.05C249.732 45.3524 249.982 45.7231 250.143 46.1351C250.303 46.547 250.37 46.9897 250.337 47.4308V63.8735Z" fill="white"/>
<path d="M258.244 40.0372V44.2409H263.388V71.2299H267.847V44.2409H273V40.0372H258.244Z" fill="white"/>
<path d="M113.722 26.2729C116.312 26.2729 118.845 25.502 120.999 24.0576C123.153 22.6132 124.832 20.5603 125.823 18.1586C126.814 15.7568 127.072 13.1141 126.566 10.5647C126.06 8.01533 124.812 5.67382 122.979 3.83638C121.147 1.99893 118.812 0.7481 116.271 0.242098C113.73 -0.263903 111.096 -0.00233844 108.703 0.993707C106.31 1.98975 104.265 3.67553 102.827 5.83779C101.389 8.00006 100.623 10.5417 100.624 13.1411C100.629 16.624 102.011 19.9627 104.466 22.4246C106.922 24.8865 110.25 26.2705 113.722 26.2729ZM113.722 4.8175C115.371 4.8175 116.984 5.3084 118.356 6.22812C119.728 7.14785 120.797 8.45508 121.429 9.98452C122.06 11.514 122.225 13.1969 121.903 14.8206C121.581 16.4442 120.787 17.9356 119.62 19.1062C118.454 20.2768 116.967 21.074 115.349 21.3969C113.731 21.7199 112.053 21.5541 110.529 20.9206C109.005 20.2871 107.702 19.2143 106.785 17.8378C105.869 16.4614 105.379 14.8431 105.379 13.1876C105.379 10.9677 106.258 8.83876 107.823 7.26906C109.387 5.69935 111.509 4.8175 113.722 4.8175Z" fill="white"/>
</g>
<defs>
<clipPath id="clip0">
<rect width="273" height="99" fill="white"/>
</clipPath>
</defs>
</svg>
