<svg width="11" height="15" viewBox="0 0 11 15" fill="none" xmlns="http://www.w3.org/2000/svg">
<g clip-path="url(#clip0)">
<path d="M2.81708 0C3.25785 0.0377488 3.61238 0.219629 3.77527 0.658888C4.1298 1.6232 4.46197 2.5978 4.79415 3.57241C4.9251 3.96019 4.83247 4.31709 4.59612 4.63281C4.39171 4.91078 4.19049 5.18874 3.97969 5.45985C3.90942 5.54907 3.89025 5.62114 3.93816 5.74125C4.53224 7.19286 5.33712 8.49005 6.37196 9.62251C6.4582 9.71517 6.52847 9.74262 6.65303 9.69801C6.96285 9.58476 7.27905 9.49554 7.59206 9.39945C7.99449 9.27248 8.33625 9.36857 8.64606 9.67742C9.30402 10.3294 9.96836 10.9746 10.6295 11.6232C11.0575 12.0419 11.1246 12.6596 10.7732 13.1503C10.259 13.871 9.62341 14.4441 8.87283 14.8662C8.53427 15.0549 8.19891 15.0378 7.86674 14.849C5.33393 13.4111 3.34409 11.3658 1.90361 8.70282C1.00611 7.03844 0.421614 5.25052 0.127769 3.35278C0.057502 2.89293 -0.0383169 2.43308 0.0159805 1.95951C0.0447261 1.71929 0.140545 1.51338 0.306631 1.35896C0.996526 0.717227 1.77905 0.253946 2.67336 0.0343171C2.72765 0.0205903 2.77876 0.0102951 2.81708 0ZM2.80111 0.78243C2.78834 0.785861 2.74043 0.78243 2.69571 0.799588C2.02179 1.02265 1.40535 1.36582 0.855992 1.84969C0.753785 1.93892 0.702682 2.0453 0.712264 2.18943C0.747397 2.78655 0.836828 3.3768 0.958199 3.96019C1.52672 6.72615 2.71168 9.14894 4.52905 11.2045C5.58305 12.3988 6.79676 13.3734 8.151 14.1455C8.29473 14.2279 8.43526 14.2588 8.58218 14.173C9.18584 13.8161 9.70965 13.3562 10.1408 12.7797C10.358 12.4914 10.3484 12.3782 10.0993 12.1311C9.47011 11.5065 8.83131 10.8922 8.2053 10.2642C8.05837 10.1201 7.91465 10.0858 7.7262 10.151C7.32696 10.2848 6.92452 10.3946 6.52527 10.5285C6.36238 10.5834 6.24101 10.5456 6.12922 10.429C4.82928 9.09403 3.84235 7.52917 3.17481 5.73782C3.10454 5.55251 3.1237 5.39808 3.24188 5.23679C3.50698 4.88675 3.7593 4.52299 4.0276 4.17296C4.12661 4.04255 4.15216 3.90529 4.10425 3.76115C3.78805 2.84146 3.46865 1.92519 3.14926 1.00549C3.09496 0.854496 2.99275 0.772135 2.80111 0.78243Z" fill="#188C56"/>
</g>
<defs>
<clipPath id="clip0">
<rect width="11" height="15" fill="white"/>
</clipPath>
</defs>
</svg>
