<svg width="40" height="47" viewBox="0 0 40 47" fill="none" xmlns="http://www.w3.org/2000/svg">
<path d="M16.3556 25.7081C16.2477 25.8622 16.1615 26.0273 16.0321 26.1484C14.4256 27.7999 12.7976 29.4403 11.2019 31.1028C10.9863 31.334 10.7706 31.4331 10.458 31.4331C7.14801 31.422 3.84882 31.411 0.538843 31.4441C-0.0433672 31.4551 0.0321045 31.1578 0.0105411 30.7835C-0.0110222 30.3651 0.0213228 30.1339 0.560406 30.1449C3.66553 30.178 6.78143 30.1559 9.88655 30.167C10.2639 30.167 10.5119 30.0569 10.7706 29.7816C12.5496 27.943 14.3394 26.1154 16.1507 24.2988C16.4202 24.0346 16.5173 23.7594 16.5173 23.385C16.5065 16.9444 16.5496 10.5038 16.4849 4.06318C16.4634 1.74015 18.1669 -0.109461 20.4526 0.0226539C21.2073 0.0666923 21.9512 0.0116443 22.6628 0.385971C24.0105 1.1016 24.7221 2.23558 24.7329 3.77693C24.7545 7.44313 24.7437 11.1203 24.7437 14.7865C24.7437 14.9847 24.7437 15.1719 24.7437 15.3921C24.9917 15.326 25.0779 15.1609 25.1965 15.0398C26.3933 13.8287 27.5901 12.6066 28.776 11.3846C28.9809 11.1754 29.175 11.0653 29.4768 11.0653C32.7868 11.0763 36.086 11.0873 39.396 11.0543C39.9998 11.0543 39.8273 11.4066 39.8488 11.7149C39.8704 12.0562 39.9027 12.3094 39.3852 12.3094C36.2801 12.2763 33.1642 12.2984 30.0591 12.2874C29.7464 12.2874 29.5308 12.3754 29.3043 12.6066C27.8919 14.0709 26.4688 15.5242 25.0348 16.9664C24.8299 17.1756 24.7437 17.3848 24.7437 17.6821C24.7545 21.6675 24.7545 25.642 24.7437 29.6275C24.7437 29.9908 24.8623 30.167 25.1642 30.3431C28.2585 32.1707 29.9944 35.991 29.3582 39.5251C28.6898 43.2794 25.8973 46.1859 22.3178 46.8575C18.1453 47.6392 14.0267 45.3162 12.5065 41.3087C10.9755 37.2681 12.4634 32.7102 16.0968 30.4312C16.4095 30.233 16.5388 30.0238 16.5281 29.6495C16.5065 28.5265 16.5173 27.4146 16.5173 26.2916C16.5065 26.1374 16.5604 25.9613 16.3556 25.7081ZM23.5146 18.6179C23.4391 18.6399 23.396 18.6399 23.3744 18.6509C21.5523 20.5005 19.741 22.3611 17.9297 24.2218C17.8111 24.3429 17.7248 24.453 17.7248 24.6401C17.7356 26.5668 17.7248 28.4935 17.768 30.4202C17.7787 30.7835 17.6925 30.9486 17.369 31.1138C14.6736 32.545 13.2073 34.846 13.1318 37.9397C13.0132 42.6849 17.1534 46.3291 21.768 45.6575C24.9054 45.2061 27.4715 42.7399 28.0752 39.5692C28.7006 36.3213 27.2882 32.9964 24.4849 31.411C23.6871 30.9596 23.4607 30.5193 23.4822 29.5944C23.5577 26.0934 23.5146 22.5923 23.5146 19.0803C23.5146 18.9482 23.5146 18.794 23.5146 18.6179ZM17.7248 22.6474C19.6547 20.6767 21.4984 18.794 23.3421 16.9224C23.4822 16.7793 23.5146 16.6251 23.5146 16.438C23.5146 12.1993 23.5254 7.96058 23.5038 3.73289C23.5038 2.41174 22.5874 1.39885 21.3475 1.27775C20.9378 1.23371 20.5173 1.25573 20.1076 1.26674C19.0186 1.27775 18.113 1.99337 17.8111 3.08332C17.6386 3.71087 17.768 4.36044 17.714 4.999C17.6925 5.28525 17.7895 5.37332 18.0698 5.37332C18.6844 5.3513 19.2882 5.39534 19.9027 5.36231C20.2477 5.34029 20.3663 5.45039 20.3124 5.79169C20.2909 5.93481 20.2909 6.08895 20.3124 6.23207C20.3556 6.55135 20.2262 6.63943 19.9243 6.62842C19.3529 6.6064 18.7707 6.65044 18.1992 6.6064C17.768 6.57337 17.6709 6.73851 17.7033 7.13486C17.7356 7.47616 17.7248 7.82846 17.7033 8.18077C17.6817 8.48904 17.7787 8.58813 18.0806 8.57712C18.706 8.5551 19.3421 8.57712 19.9674 8.56611C20.2262 8.5551 20.3232 8.65419 20.3016 8.90741C20.2801 9.09457 20.2801 9.27072 20.3016 9.45789C20.3448 9.78817 20.1938 9.85423 19.9027 9.84322C19.2774 9.8212 18.6413 9.84322 18.0159 9.83221C17.8434 9.83221 17.6925 9.8212 17.7033 10.0744C17.7248 10.6249 17.5631 11.2635 17.8003 11.6818C17.962 11.9791 18.6628 11.7479 19.1264 11.7699C19.3097 11.7809 19.493 11.7919 19.6655 11.7699C20.1615 11.6928 20.334 11.847 20.334 12.3975C20.3232 12.9259 20.2046 13.1351 19.6871 13.047C19.5146 13.014 19.3313 13.036 19.148 13.047C18.6844 13.069 18.0806 12.8488 17.8003 13.1351C17.52 13.4213 17.7572 14.0379 17.714 14.5113C17.6817 14.8856 17.7787 15.0398 18.1777 15.0067C18.6736 14.9737 19.1911 15.0398 19.6871 14.9847C20.2046 14.9297 20.3556 15.0838 20.334 15.6233C20.3232 16.1187 20.2154 16.3279 19.7194 16.2398C19.5577 16.2178 19.396 16.2288 19.2343 16.2398C18.7383 16.2728 18.0591 16.0086 17.8003 16.3499C17.5523 16.6692 17.7464 17.3298 17.714 17.8362C17.6925 18.1775 17.8434 18.2215 18.1238 18.2105C18.7491 18.1885 19.3852 18.2105 20.0105 18.1995C20.237 18.1995 20.3448 18.2546 20.3232 18.5078C20.3016 18.6949 20.3016 18.8821 20.3232 19.0583C20.3663 19.3885 20.2154 19.4546 19.9243 19.4436C19.299 19.4216 18.6628 19.4436 18.0375 19.4326C17.8219 19.4326 17.714 19.4656 17.714 19.7298C17.7356 20.6547 17.7248 21.5905 17.7248 22.6474Z" fill="white"/>
<path d="M4.52737 27.7992C2.41416 27.7882 1.10958 26.4451 1.2713 24.5294C1.44381 22.2834 3.23357 21.3696 5.10958 21.5898C6.04758 21.6999 6.01523 21.7219 5.87507 22.6247C5.81038 23.0431 5.69178 23.1972 5.23896 23.0761C4.58127 22.9 3.93437 22.988 3.49233 23.5936C3.08262 24.1551 3.07184 24.7936 3.31982 25.4212C3.61092 26.1588 4.35486 26.4781 5.37912 26.2359C5.82117 26.1258 5.84273 26.3019 5.88586 26.6322C6.00445 27.6011 6.01524 27.6011 5.05567 27.7442C4.82925 27.7772 4.61362 27.7882 4.52737 27.7992Z" fill="white"/>
<path d="M31.6333 8.68657C29.6494 8.74162 28.388 7.58561 28.3341 5.71398C28.2909 3.89739 29.5632 2.56523 31.4176 2.47716C31.8489 2.45514 32.2694 2.48817 32.7006 2.56523C33.0457 2.63129 33.0996 2.80744 33.0241 3.1047C33.0025 3.17076 32.9702 3.24783 32.9702 3.31389C32.9594 3.9084 32.7546 4.07355 32.1184 3.95244C31.0403 3.73225 30.264 4.43686 30.2316 5.49379C30.2101 6.61677 30.9109 7.28835 32.0322 7.22229C32.1939 7.21128 32.3449 7.16724 32.5066 7.14523C32.5928 7.13422 32.7222 7.07917 32.7653 7.1122C33.0672 7.40946 32.9271 7.82782 33.0349 8.18013C33.1103 8.41133 32.9702 8.4884 32.7653 8.55445C32.388 8.64253 31.9891 8.65354 31.6333 8.68657Z" fill="white"/>
<path d="M37.4873 7.25532C37.4873 7.49753 37.4657 7.72873 37.4873 7.97094C37.5304 8.41133 37.4226 8.57647 36.9266 8.59849C36.3444 8.62051 36.2582 8.41133 36.2689 7.89388C36.2905 7.24431 36.3444 6.58373 36.2258 5.93417C35.6005 5.92316 34.9751 5.92316 34.3498 5.89013C34.1665 5.87912 33.8754 6.01123 33.8215 5.79104C33.746 5.48277 33.7892 5.13047 33.8323 4.81119C33.8538 4.67907 34.0479 4.72311 34.1665 4.72311C34.7379 4.72311 35.3202 4.70109 35.8916 4.72311C36.1935 4.73412 36.3013 4.65705 36.2905 4.33777C36.2689 3.73225 36.3013 3.12672 36.2797 2.52119C36.2689 2.16888 36.366 2.04778 36.7326 2.05879C37.4873 2.08081 37.4873 2.05879 37.4873 2.84047C37.4873 3.3359 37.4981 3.83133 37.4765 4.32676C37.4657 4.62402 37.552 4.74513 37.8646 4.73412C38.4361 4.7121 39.0183 4.74513 39.5897 4.72311C39.8916 4.7121 39.9886 4.81119 39.9886 5.11946C39.9994 5.90114 40.0102 5.90114 39.2231 5.90114C38.8134 5.90114 38.3929 5.93417 37.9832 5.89013C37.5304 5.83508 37.4334 6.03325 37.4657 6.44061C37.5088 6.70484 37.4873 6.98008 37.4873 7.25532Z" fill="white"/>
<path d="M8.35548 25.0798C7.94578 25.0798 7.52529 25.0688 7.11559 25.0798C6.84605 25.0908 6.71667 25.0138 6.74901 24.7165C6.77058 24.5183 6.7598 24.3092 6.74901 24.111C6.73823 23.8908 6.83527 23.8358 7.02934 23.8358C7.89187 23.8468 8.75441 23.8468 9.61694 23.8358C9.82179 23.8358 9.91883 23.8908 9.89726 24.111C9.88648 24.2761 9.88648 24.4413 9.90804 24.6064C9.95117 24.9807 9.82179 25.1349 9.43365 25.0908C9.07786 25.0468 8.71128 25.0798 8.35548 25.0798Z" fill="white"/>
<path d="M20.6574 41.9246C18.1345 41.9025 16.1075 39.8327 16.1291 37.2565C16.1399 34.7023 18.2099 32.6325 20.7329 32.6545C23.2126 32.6655 25.2396 34.7573 25.2288 37.3005C25.2072 39.8988 23.1803 41.9466 20.6574 41.9246Z" fill="white"/>
</svg>
