<svg width="29" height="29" viewBox="0 0 29 29" fill="none" xmlns="http://www.w3.org/2000/svg">
<g clip-path="url(#clip0)">
<path d="M14.5014 29C11.9643 29 9.47442 28.329 7.2701 27.0535L1.61928 29L2.78105 23.0164C0.959365 20.5238 0 17.5902 0 14.4986C0 6.50483 6.50483 0 14.5014 0C22.4979 0 29.0028 6.50483 29.0028 14.4986C29 22.4952 22.4952 29 14.5014 29ZM7.52797 24.6829L7.96606 24.9546C9.9347 26.1885 12.1945 26.8428 14.5014 26.8428C21.3084 26.8428 26.8456 21.3057 26.8456 14.4986C26.8456 7.69433 21.3084 2.15719 14.5014 2.15719C7.69433 2.15719 2.15996 7.69433 2.15996 14.4986C2.15996 17.2686 3.06664 19.8916 4.78296 22.0848L5.08519 22.473L4.45023 25.742L7.52797 24.6829Z" fill="#0D0D0D"/>
<path d="M7.18096 8.92823C7.18096 8.92823 8.03218 7.44204 8.72537 7.35609C9.41855 7.27013 10.3114 7.27013 10.5526 7.72486C10.7911 8.17959 11.8696 10.8137 11.8696 10.8137C11.8696 10.8137 12.0526 11.2656 11.7698 11.7065C11.487 12.1446 10.8493 12.7823 10.8493 12.7823C10.8493 12.7823 10.4944 13.2343 10.8493 13.7167C11.2042 14.1992 11.7532 15.0837 12.89 16.2205C14.0241 17.3573 16.2034 18.167 16.2034 18.167C16.2034 18.167 16.5167 18.2086 16.7136 18.0117C16.9105 17.8148 17.9891 16.4673 17.9891 16.4673C17.9891 16.4673 18.3357 16.0209 18.9096 16.2843C19.4836 16.5477 21.9679 17.7843 21.9679 17.7843C21.9679 17.7843 22.2591 17.8897 22.2591 18.3306C22.2591 18.7687 22.0816 19.8445 21.7184 20.2077C21.3552 20.5709 20.2932 21.6911 18.6961 21.6911C17.099 21.6911 13.3004 20.3935 11.2735 18.3666C9.24941 16.3397 7.44991 14.2879 7.02568 12.4163C6.59868 10.5447 6.65691 9.69905 7.18096 8.92823Z" fill="#0D0D0D"/>
</g>
<defs>
<clipPath id="clip0">
<rect width="29" height="29" fill="white"/>
</clipPath>
</defs>
</svg>
