<svg width="29" height="29" viewBox="0 0 29 29" fill="none" xmlns="http://www.w3.org/2000/svg">
<g clip-path="url(#clip0)">
<path d="M14.5014 29C11.9643 29 9.47442 28.329 7.2701 27.0535L1.61928 29L2.78105 23.0164C0.959365 20.5238 0 17.5902 0 14.4986C0 6.50483 6.50483 0 14.5014 0C22.4979 0 29.0028 6.50483 29.0028 14.4986C29 22.4952 22.4952 29 14.5014 29ZM7.52797 24.6829L7.96606 24.9546C9.9347 26.1885 12.1945 26.8428 14.5014 26.8428C21.3084 26.8428 26.8456 21.3057 26.8456 14.4986C26.8456 7.69433 21.3084 2.15719 14.5014 2.15719C7.69433 2.15719 2.15996 7.69433 2.15996 14.4986C2.15996 17.2686 3.06664 19.8916 4.78296 22.0848L5.08519 22.473L4.45023 25.742L7.52797 24.6829Z" fill="#fff"/>
<path d="M7.18096 8.92835C7.18096 8.92835 8.03218 7.44217 8.72537 7.35621C9.41855 7.27026 10.3114 7.27026 10.5526 7.72498C10.7911 8.17971 11.8696 10.8138 11.8696 10.8138C11.8696 10.8138 12.0526 11.2658 11.7698 11.7066C11.487 12.1447 10.8493 12.7824 10.8493 12.7824C10.8493 12.7824 10.4944 13.2344 10.8493 13.7169C11.2042 14.1993 11.7532 15.0838 12.89 16.2206C14.0241 17.3575 16.2034 18.1671 16.2034 18.1671C16.2034 18.1671 16.5167 18.2087 16.7136 18.0118C16.9105 17.815 17.9891 16.4674 17.9891 16.4674C17.9891 16.4674 18.3357 16.021 18.9096 16.2844C19.4836 16.5478 21.9679 17.7845 21.9679 17.7845C21.9679 17.7845 22.2591 17.8898 22.2591 18.3307C22.2591 18.7688 22.0816 19.8446 21.7184 20.2078C21.3552 20.571 20.2932 21.6912 18.6961 21.6912C17.099 21.6912 13.3004 20.3936 11.2735 18.3667C9.24941 16.3399 7.44991 14.288 7.02568 12.4164C6.59868 10.5449 6.65691 9.69917 7.18096 8.92835Z" fill="#fff"/>
</g>
<defs>
<clipPath id="clip0">
<rect width="29" height="29" fill="white"/>
</clipPath>
</defs>
</svg>
