<svg width="40" height="39" viewBox="0 0 40 39" fill="none" xmlns="http://www.w3.org/2000/svg">
<path fill-rule="evenodd" clip-rule="evenodd" d="M38.8799 2.38236C39.2727 1.9941 39.2763 1.36095 38.8881 0.968173C38.4998 0.575398 37.8667 0.571737 37.4739 0.959997L20.2741 17.962L2.58085 0.734432C2.18515 0.34915 1.55205 0.35759 1.16676 0.753287C0.781481 1.14898 0.789921 1.78209 1.18562 2.16737L18.8515 19.3683L0.757437 37.2543C0.364661 37.6426 0.361001 38.2757 0.749262 38.6685C1.13752 39.0613 1.77067 39.0649 2.16345 38.6767L20.2847 20.7638L37.7527 37.7721C38.1484 38.1574 38.7815 38.149 39.1668 37.7533C39.552 37.3576 39.5436 36.7245 39.1479 36.3392L21.7073 19.3575L38.8799 2.38236Z" fill="white"/>
</svg>
